<svg width="381" height="92" viewBox="0 0 381 92" fill="none" xmlns="http://www.w3.org/2000/svg">
<rect y="6" width="381" height="86" rx="25" fill="#ADADAD"/>
<rect x="0.5" y="0.5" width="380" height="85" rx="24.5" fill="white" stroke="#ADADAD"/>
<path d="M160.63 54.24C159.73 54.24 159.09 54.11 158.71 53.85C158.33 53.57 158.1 53.22 158.02 52.8C157.94 52.36 157.9 51.91 157.9 51.45V35.97C157.9 35.53 157.94 35.1 158.02 34.68C158.1 34.26 158.33 33.92 158.71 33.66C159.09 33.38 159.74 33.24 160.66 33.24H167.68C168.9 33.24 169.99 33.54 170.95 34.14C171.91 34.72 172.67 35.5 173.23 36.48C173.79 37.46 174.07 38.52 174.07 39.66C174.07 40.04 174.03 40.43 173.95 40.83C173.89 41.21 173.78 41.59 173.62 41.97C173.48 42.33 173.3 42.68 173.08 43.02C173.42 43.44 173.71 43.9 173.95 44.4C174.19 44.88 174.37 45.38 174.49 45.9C174.61 46.4 174.67 46.91 174.67 47.43C174.65 48.39 174.46 49.29 174.1 50.13C173.76 50.95 173.28 51.67 172.66 52.29C172.04 52.89 171.33 53.37 170.53 53.73C169.73 54.07 168.88 54.24 167.98 54.24H160.63ZM163.39 48.75H167.68C167.82 48.75 168.01 48.73 168.25 48.69C168.49 48.63 168.7 48.49 168.88 48.27C169.08 48.03 169.18 47.64 169.18 47.1C169.18 46.82 169.15 46.59 169.09 46.41C169.05 46.21 168.98 46.06 168.88 45.96C168.78 45.84 168.66 45.76 168.52 45.72C168.4 45.66 168.25 45.62 168.07 45.6C167.91 45.58 167.73 45.57 167.53 45.57H167.14C166.34 45.57 165.77 45.4 165.43 45.06C165.09 44.72 164.92 44.12 164.92 43.26C164.92 42.44 165.1 41.87 165.46 41.55C165.84 41.21 166.45 41.04 167.29 41.04H167.65C167.81 41.04 167.95 41.03 168.07 41.01C168.19 40.99 168.28 40.94 168.34 40.86C168.42 40.78 168.48 40.67 168.52 40.53C168.56 40.37 168.58 40.16 168.58 39.9C168.58 39.44 168.47 39.13 168.25 38.97C168.05 38.81 167.64 38.73 167.02 38.73H163.39V48.75ZM188.361 54.21C187.461 54.21 186.791 54.06 186.351 53.76C185.931 53.46 185.731 53.12 185.751 52.74H186.171C186.071 52.88 185.871 53.07 185.571 53.31C185.291 53.53 184.911 53.74 184.431 53.94C183.951 54.12 183.361 54.21 182.661 54.21C181.761 54.21 180.891 54.01 180.051 53.61C179.231 53.19 178.491 52.62 177.831 51.9C177.191 51.18 176.681 50.37 176.301 49.47C175.921 48.55 175.731 47.59 175.731 46.59C175.731 45.61 175.921 44.67 176.301 43.77C176.681 42.87 177.201 42.07 177.861 41.37C178.521 40.65 179.261 40.09 180.081 39.69C180.901 39.27 181.761 39.06 182.661 39.06C183.341 39.06 183.911 39.16 184.371 39.36C184.851 39.56 185.231 39.78 185.511 40.02C185.811 40.26 186.011 40.46 186.111 40.62H185.781C185.761 40.12 185.961 39.73 186.381 39.45C186.821 39.17 187.491 39.03 188.391 39.03C189.291 39.03 189.921 39.17 190.281 39.45C190.661 39.71 190.891 40.05 190.971 40.47C191.051 40.89 191.091 41.32 191.091 41.76V51.51C191.091 51.95 191.051 52.38 190.971 52.8C190.891 53.22 190.661 53.56 190.281 53.82C189.921 54.08 189.281 54.21 188.361 54.21ZM183.411 48.78C183.791 48.78 184.131 48.68 184.431 48.48C184.751 48.28 185.001 48.02 185.181 47.7C185.381 47.36 185.481 47 185.481 46.62C185.481 46.22 185.381 45.86 185.181 45.54C185.001 45.22 184.751 44.96 184.431 44.76C184.111 44.56 183.751 44.46 183.351 44.46C182.951 44.46 182.581 44.56 182.241 44.76C181.921 44.96 181.661 45.23 181.461 45.57C181.261 45.89 181.161 46.25 181.161 46.65C181.161 47.03 181.261 47.38 181.461 47.7C181.681 48.02 181.961 48.28 182.301 48.48C182.641 48.68 183.011 48.78 183.411 48.78ZM200.59 54.42C199.77 54.42 198.9 54.26 197.98 53.94C197.08 53.6 196.23 53.11 195.43 52.47C194.63 51.81 193.98 50.99 193.48 50.01C192.98 49.03 192.73 47.89 192.73 46.59C192.73 45.31 192.98 44.19 193.48 43.23C193.98 42.25 194.62 41.44 195.4 40.8C196.2 40.16 197.05 39.68 197.95 39.36C198.87 39.02 199.73 38.85 200.53 38.85C201.29 38.85 201.95 38.93 202.51 39.09C203.07 39.25 203.53 39.43 203.89 39.63C204.25 39.81 204.51 39.95 204.67 40.05C205.07 40.29 205.44 40.57 205.78 40.89C206.14 41.19 206.32 41.6 206.32 42.12C206.32 42.38 206.27 42.65 206.17 42.93C206.07 43.19 205.91 43.49 205.69 43.83C204.97 44.93 204.25 45.48 203.53 45.48C203.21 45.48 202.93 45.43 202.69 45.33C202.45 45.21 202.23 45.08 202.03 44.94C201.83 44.8 201.61 44.68 201.37 44.58C201.15 44.46 200.87 44.4 200.53 44.4C200.13 44.4 199.76 44.5 199.42 44.7C199.08 44.9 198.81 45.17 198.61 45.51C198.41 45.83 198.31 46.2 198.31 46.62C198.31 47.04 198.41 47.42 198.61 47.76C198.81 48.1 199.07 48.37 199.39 48.57C199.73 48.77 200.09 48.87 200.47 48.87C200.75 48.87 200.98 48.84 201.16 48.78C201.36 48.72 201.51 48.66 201.61 48.6C201.71 48.52 201.77 48.48 201.79 48.48C202.07 48.32 202.33 48.17 202.57 48.03C202.83 47.89 203.09 47.82 203.35 47.82C203.69 47.82 204.04 47.95 204.4 48.21C204.76 48.45 205.16 48.85 205.6 49.41C206.02 49.93 206.25 50.42 206.29 50.88C206.35 51.32 206.24 51.74 205.96 52.14C205.68 52.52 205.25 52.89 204.67 53.25C204.61 53.29 204.4 53.41 204.04 53.61C203.7 53.79 203.24 53.97 202.66 54.15C202.08 54.33 201.39 54.42 200.59 54.42ZM220.958 49.32C221.698 49.98 222.088 50.61 222.128 51.21C222.188 51.79 221.858 52.46 221.138 53.22C220.598 53.78 220.128 54.14 219.728 54.3C219.348 54.48 218.968 54.48 218.588 54.3C218.208 54.14 217.758 53.83 217.238 53.37L213.548 49.92V51.57C213.548 52.01 213.508 52.44 213.428 52.86C213.348 53.28 213.118 53.62 212.738 53.88C212.378 54.14 211.738 54.27 210.818 54.27C209.918 54.27 209.278 54.14 208.898 53.88C208.518 53.6 208.288 53.25 208.208 52.83C208.148 52.41 208.118 51.98 208.118 51.54V34.83C208.118 34.37 208.158 33.94 208.238 33.54C208.318 33.12 208.548 32.78 208.928 32.52C209.308 32.24 209.948 32.1 210.848 32.1C211.748 32.1 212.378 32.24 212.738 32.52C213.118 32.78 213.348 33.12 213.428 33.54C213.508 33.96 213.548 34.4 213.548 34.86V43.14L216.098 40.65C216.578 40.19 217.028 39.88 217.448 39.72C217.868 39.54 218.278 39.53 218.678 39.69C219.098 39.83 219.538 40.15 219.998 40.65C220.778 41.49 221.148 42.17 221.108 42.69C221.088 43.21 220.718 43.83 219.998 44.55L217.568 46.68L220.958 49.32Z" fill="#282828"/>
</svg>
