<svg width="381" height="92" viewBox="0 0 381 92" fill="none" xmlns="http://www.w3.org/2000/svg">
<rect y="6" width="381" height="86" rx="25" fill="#4D4ABC"/>
<rect width="381" height="86" rx="25" fill="#6864FA"/>
<path d="M156.23 54.27C155.33 54.27 154.69 54.14 154.31 53.88C153.93 53.6 153.7 53.25 153.62 52.83C153.54 52.39 153.5 51.95 153.5 51.51V36C153.5 35.56 153.54 35.13 153.62 34.71C153.7 34.29 153.93 33.95 154.31 33.69C154.69 33.41 155.34 33.27 156.26 33.27C157.18 33.27 157.82 33.41 158.18 33.69C158.56 33.95 158.79 34.29 158.87 34.71C158.95 35.13 158.99 35.57 158.99 36.03V49.59H166.31C166.69 49.59 167.05 49.62 167.39 49.68C167.75 49.74 168.04 49.94 168.26 50.28C168.5 50.6 168.62 51.15 168.62 51.93C168.62 52.69 168.5 53.24 168.26 53.58C168.02 53.9 167.72 54.09 167.36 54.15C167.02 54.23 166.66 54.27 166.28 54.27H156.23ZM177.48 54.54C176.56 54.54 175.63 54.36 174.69 54C173.75 53.62 172.88 53.09 172.08 52.41C171.3 51.71 170.67 50.88 170.19 49.92C169.73 48.94 169.5 47.85 169.5 46.65C169.5 45.55 169.71 44.52 170.13 43.56C170.55 42.6 171.12 41.76 171.84 41.04C172.58 40.3 173.42 39.72 174.36 39.3C175.32 38.88 176.34 38.67 177.42 38.67C178.9 38.67 180.24 39.03 181.44 39.75C182.64 40.45 183.6 41.4 184.32 42.6C185.04 43.8 185.4 45.14 185.4 46.62C185.4 47.88 185.16 49 184.68 49.98C184.2 50.96 183.57 51.79 182.79 52.47C182.01 53.15 181.15 53.66 180.21 54C179.29 54.36 178.38 54.54 177.48 54.54ZM177.42 49.05C177.72 49.05 178.06 48.98 178.44 48.84C178.84 48.68 179.18 48.42 179.46 48.06C179.76 47.7 179.91 47.21 179.91 46.59C179.91 46.09 179.8 45.66 179.58 45.3C179.38 44.94 179.09 44.66 178.71 44.46C178.33 44.26 177.89 44.16 177.39 44.16C176.95 44.16 176.55 44.27 176.19 44.49C175.83 44.69 175.54 44.98 175.32 45.36C175.1 45.72 174.99 46.14 174.99 46.62C174.99 47.22 175.13 47.7 175.41 48.06C175.69 48.42 176.02 48.68 176.4 48.84C176.78 48.98 177.12 49.05 177.42 49.05ZM193.759 60.6C193.059 60.6 192.339 60.5 191.599 60.3C190.879 60.12 190.209 59.87 189.589 59.55C188.969 59.23 188.469 58.88 188.089 58.5C187.709 58.14 187.519 57.78 187.519 57.42C187.519 57.02 187.589 56.65 187.729 56.31C187.889 55.97 188.119 55.64 188.419 55.32C188.739 54.98 189.019 54.71 189.259 54.51C189.499 54.31 189.789 54.21 190.129 54.21C190.429 54.21 190.689 54.28 190.909 54.42C191.149 54.56 191.389 54.71 191.629 54.87C191.869 55.05 192.159 55.21 192.499 55.35C192.859 55.49 193.309 55.56 193.849 55.56C194.149 55.56 194.429 55.49 194.689 55.35C194.949 55.23 195.169 55.05 195.349 54.81C195.549 54.59 195.709 54.32 195.829 54C195.949 53.7 196.009 53.37 196.009 53.01V40.65C196.089 40.05 196.339 39.62 196.759 39.36C197.179 39.1 197.819 38.97 198.679 38.97C199.559 38.97 200.179 39.1 200.539 39.36C200.899 39.62 201.109 39.96 201.169 40.38C201.249 40.78 201.289 41.2 201.289 41.64V53.19C201.289 54.37 201.059 55.42 200.599 56.34C200.159 57.26 199.569 58.03 198.829 58.65C198.089 59.29 197.279 59.77 196.399 60.09C195.519 60.43 194.639 60.6 193.759 60.6ZM193.009 53.82C192.129 53.82 191.279 53.62 190.459 53.22C189.659 52.82 188.939 52.27 188.299 51.57C187.659 50.87 187.149 50.08 186.769 49.2C186.409 48.3 186.229 47.36 186.229 46.38C186.229 45.44 186.409 44.53 186.769 43.65C187.149 42.77 187.659 41.99 188.299 41.31C188.959 40.61 189.689 40.06 190.489 39.66C191.309 39.24 192.149 39.03 193.009 39.03C193.889 39.03 194.609 39.21 195.169 39.57C195.749 39.93 196.199 40.44 196.519 41.1C196.859 41.76 197.099 42.55 197.239 43.47C197.379 44.37 197.449 45.37 197.449 46.47C197.449 47.99 197.319 49.3 197.059 50.4C196.819 51.5 196.379 52.35 195.739 52.95C195.099 53.53 194.189 53.82 193.009 53.82ZM193.729 48.54C194.109 48.54 194.449 48.44 194.749 48.24C195.069 48.04 195.319 47.78 195.499 47.46C195.699 47.14 195.799 46.8 195.799 46.44C195.799 46.04 195.699 45.68 195.499 45.36C195.319 45.04 195.069 44.79 194.749 44.61C194.429 44.41 194.069 44.31 193.669 44.31C193.289 44.31 192.939 44.41 192.619 44.61C192.299 44.81 192.039 45.07 191.839 45.39C191.659 45.71 191.569 46.06 191.569 46.44C191.569 46.8 191.669 47.14 191.869 47.46C192.069 47.78 192.329 48.04 192.649 48.24C192.989 48.44 193.349 48.54 193.729 48.54ZM205.936 54.27C205.036 54.27 204.396 54.14 204.016 53.88C203.636 53.6 203.406 53.25 203.326 52.83C203.266 52.41 203.236 51.98 203.236 51.54V41.76C203.236 41.32 203.276 40.9 203.356 40.5C203.436 40.08 203.666 39.74 204.046 39.48C204.426 39.2 205.066 39.06 205.966 39.06C206.866 39.06 207.496 39.2 207.856 39.48C208.236 39.74 208.466 40.08 208.546 40.5C208.626 40.92 208.666 41.36 208.666 41.82V51.57C208.666 52.01 208.626 52.44 208.546 52.86C208.466 53.28 208.236 53.62 207.856 53.88C207.496 54.14 206.856 54.27 205.936 54.27ZM205.936 37.59C205.036 37.59 204.396 37.46 204.016 37.2C203.636 36.92 203.406 36.57 203.326 36.15C203.266 35.73 203.236 35.3 203.236 34.86C203.236 34.4 203.276 33.97 203.356 33.57C203.436 33.15 203.666 32.81 204.046 32.55C204.426 32.29 205.066 32.16 205.966 32.16C206.866 32.16 207.496 32.3 207.856 32.58C208.236 32.84 208.466 33.18 208.546 33.6C208.626 34.02 208.666 34.45 208.666 34.89C208.666 35.33 208.626 35.76 208.546 36.18C208.466 36.6 208.236 36.94 207.856 37.2C207.496 37.46 206.856 37.59 205.936 37.59ZM213.315 54.24C212.415 54.24 211.775 54.11 211.395 53.85C211.015 53.57 210.785 53.22 210.705 52.8C210.645 52.38 210.615 51.95 210.615 51.51V41.64C210.615 41.2 210.655 40.78 210.735 40.38C210.815 39.98 211.045 39.66 211.425 39.42C211.805 39.16 212.445 39.03 213.345 39.03C214.165 39.03 214.755 39.14 215.115 39.36C215.495 39.56 215.735 39.81 215.835 40.11C215.935 40.41 215.975 40.69 215.955 40.95C215.955 41.19 215.975 41.34 216.015 41.4L215.775 41.58C215.755 41.28 215.865 40.98 216.105 40.68C216.365 40.38 216.695 40.11 217.095 39.87C217.515 39.61 217.955 39.41 218.415 39.27C218.895 39.11 219.345 39.03 219.765 39.03C220.765 39.03 221.645 39.22 222.405 39.6C223.165 39.98 223.795 40.52 224.295 41.22C224.815 41.9 225.205 42.7 225.465 43.62C225.725 44.54 225.855 45.54 225.855 46.62V51.54C225.855 51.98 225.815 52.41 225.735 52.83C225.655 53.25 225.425 53.59 225.045 53.85C224.685 54.11 224.045 54.24 223.125 54.24C222.205 54.24 221.555 54.11 221.175 53.85C220.795 53.57 220.565 53.22 220.485 52.8C220.405 52.38 220.365 51.95 220.365 51.51V46.62C220.365 46.16 220.275 45.77 220.095 45.45C219.935 45.13 219.695 44.89 219.375 44.73C219.075 44.55 218.695 44.46 218.235 44.46C217.795 44.46 217.405 44.55 217.065 44.73C216.745 44.91 216.495 45.16 216.315 45.48C216.135 45.8 216.045 46.18 216.045 46.62V51.54C216.045 51.98 216.005 52.41 215.925 52.83C215.845 53.25 215.615 53.59 215.235 53.85C214.875 54.11 214.235 54.24 213.315 54.24Z" fill="white"/>
</svg>
