<svg width="381" height="92" viewBox="0 0 381 92" fill="none" xmlns="http://www.w3.org/2000/svg">
<rect y="6" width="381" height="86" rx="25" fill="#4D4ABC"/>
<rect width="381" height="86" rx="25" fill="#6864FA"/>
<path d="M80.13 54.57C78.91 54.57 77.87 54.42 77.01 54.12C76.17 53.82 75.48 53.47 74.94 53.07C74.4 52.65 73.99 52.27 73.71 51.93C73.43 51.59 73.26 51.38 73.2 51.3C72.8 50.8 72.55 50.35 72.45 49.95C72.37 49.55 72.43 49.15 72.63 48.75C72.85 48.35 73.21 47.91 73.71 47.43C74.17 46.99 74.62 46.75 75.06 46.71C75.5 46.65 75.93 46.74 76.35 46.98C76.79 47.22 77.21 47.57 77.61 48.03C78.09 48.57 78.5 48.94 78.84 49.14C79.18 49.32 79.57 49.41 80.01 49.41C80.55 49.41 80.99 49.35 81.33 49.23C81.67 49.09 81.92 48.89 82.08 48.63C82.24 48.35 82.32 48 82.32 47.58C82.32 47.24 82.15 46.98 81.81 46.8C81.47 46.6 81.02 46.43 80.46 46.29C79.92 46.15 79.31 46 78.63 45.84C77.95 45.66 77.28 45.43 76.62 45.15C76.22 44.99 75.83 44.79 75.45 44.55C75.07 44.31 74.71 44.04 74.37 43.74C74.05 43.42 73.77 43.05 73.53 42.63C73.29 42.19 73.1 41.7 72.96 41.16C72.84 40.62 72.78 40.01 72.78 39.33C72.78 38.11 73.08 37.02 73.68 36.06C74.3 35.1 75.14 34.34 76.2 33.78C77.28 33.22 78.5 32.94 79.86 32.94C80.84 32.94 81.68 33.02 82.38 33.18C83.08 33.34 83.65 33.53 84.09 33.75C84.55 33.97 84.9 34.18 85.14 34.38C85.38 34.56 85.53 34.68 85.59 34.74C86.25 35.34 86.61 35.86 86.67 36.3C86.73 36.72 86.49 37.33 85.95 38.13C85.35 38.99 84.76 39.48 84.18 39.6C83.6 39.7 82.93 39.51 82.17 39.03C82.01 38.91 81.85 38.78 81.69 38.64C81.53 38.48 81.31 38.35 81.03 38.25C80.77 38.13 80.37 38.07 79.83 38.07C79.63 38.07 79.43 38.11 79.23 38.19C79.03 38.25 78.86 38.34 78.72 38.46C78.58 38.56 78.46 38.69 78.36 38.85C78.28 39.01 78.24 39.18 78.24 39.36C78.24 39.78 78.4 40.11 78.72 40.35C79.04 40.57 79.46 40.74 79.98 40.86C80.52 40.98 81.11 41.1 81.75 41.22C82.39 41.34 83.04 41.5 83.7 41.7C84.24 41.88 84.76 42.11 85.26 42.39C85.76 42.67 86.2 43.03 86.58 43.47C86.96 43.91 87.26 44.46 87.48 45.12C87.72 45.76 87.84 46.55 87.84 47.49C87.84 48.79 87.59 49.9 87.09 50.82C86.59 51.72 85.94 52.45 85.14 53.01C84.36 53.55 83.52 53.94 82.62 54.18C81.74 54.44 80.91 54.57 80.13 54.57ZM96.8998 54.6C95.3998 54.6 94.1298 54.36 93.0898 53.88C92.0498 53.38 91.2098 52.74 90.5698 51.96C89.9298 51.16 89.4598 50.3 89.1598 49.38C88.8598 48.46 88.7098 47.57 88.7098 46.71C88.7098 45.13 89.0598 43.74 89.7598 42.54C90.4598 41.34 91.4298 40.4 92.6698 39.72C93.9098 39.04 95.3298 38.7 96.9298 38.7C98.1698 38.7 99.2298 38.9 100.11 39.3C100.99 39.7 101.7 40.21 102.24 40.83C102.8 41.45 103.21 42.11 103.47 42.81C103.73 43.51 103.86 44.16 103.86 44.76C103.86 45.9 103.58 46.77 103.02 47.37C102.46 47.97 101.74 48.27 100.86 48.27H94.4698C94.5498 48.59 94.7098 48.87 94.9498 49.11C95.2098 49.33 95.5298 49.51 95.9098 49.65C96.2898 49.77 96.6998 49.83 97.1398 49.83C97.5798 49.83 97.9698 49.81 98.3098 49.77C98.6498 49.71 98.9398 49.64 99.1798 49.56C99.4398 49.48 99.6698 49.4 99.8698 49.32C100.09 49.24 100.28 49.18 100.44 49.14C100.62 49.08 100.79 49.05 100.95 49.05C101.31 49.05 101.64 49.17 101.94 49.41C102.24 49.65 102.51 50.01 102.75 50.49C102.89 50.75 102.99 51 103.05 51.24C103.11 51.46 103.14 51.67 103.14 51.87C103.14 52.47 102.89 52.97 102.39 53.37C101.91 53.77 101.21 54.07 100.29 54.27C99.3698 54.49 98.2398 54.6 96.8998 54.6ZM94.4698 45.45H97.8298C98.1098 45.45 98.3098 45.39 98.4298 45.27C98.5698 45.15 98.6398 44.97 98.6398 44.73C98.6398 44.47 98.5598 44.25 98.3998 44.07C98.2598 43.89 98.0598 43.76 97.7998 43.68C97.5398 43.58 97.2298 43.53 96.8698 43.53C96.3898 43.53 95.9698 43.63 95.6098 43.83C95.2498 44.01 94.9698 44.25 94.7698 44.55C94.5898 44.83 94.4898 45.13 94.4698 45.45ZM107.914 54.24C107.014 54.24 106.374 54.11 105.994 53.85C105.614 53.57 105.384 53.22 105.304 52.8C105.244 52.38 105.214 51.95 105.214 51.51V41.64C105.214 41.2 105.254 40.78 105.334 40.38C105.414 39.98 105.644 39.66 106.024 39.42C106.404 39.16 107.044 39.03 107.944 39.03C108.764 39.03 109.354 39.14 109.714 39.36C110.094 39.56 110.334 39.81 110.434 40.11C110.534 40.41 110.574 40.69 110.554 40.95C110.554 41.19 110.574 41.34 110.614 41.4L110.374 41.58C110.354 41.28 110.464 40.98 110.704 40.68C110.964 40.38 111.294 40.11 111.694 39.87C112.114 39.61 112.554 39.41 113.014 39.27C113.494 39.11 113.944 39.03 114.364 39.03C115.364 39.03 116.244 39.22 117.004 39.6C117.764 39.98 118.394 40.52 118.894 41.22C119.414 41.9 119.804 42.7 120.064 43.62C120.324 44.54 120.454 45.54 120.454 46.62V51.54C120.454 51.98 120.414 52.41 120.334 52.83C120.254 53.25 120.024 53.59 119.644 53.85C119.284 54.11 118.644 54.24 117.724 54.24C116.804 54.24 116.154 54.11 115.774 53.85C115.394 53.57 115.164 53.22 115.084 52.8C115.004 52.38 114.964 51.95 114.964 51.51V46.62C114.964 46.16 114.874 45.77 114.694 45.45C114.534 45.13 114.294 44.89 113.974 44.73C113.674 44.55 113.294 44.46 112.834 44.46C112.394 44.46 112.004 44.55 111.664 44.73C111.344 44.91 111.094 45.16 110.914 45.48C110.734 45.8 110.644 46.18 110.644 46.62V51.54C110.644 51.98 110.604 52.41 110.524 52.83C110.444 53.25 110.214 53.59 109.834 53.85C109.474 54.11 108.834 54.24 107.914 54.24ZM128.687 54.21C127.787 54.21 126.917 54.01 126.077 53.61C125.257 53.19 124.517 52.63 123.857 51.93C123.217 51.21 122.707 50.39 122.327 49.47C121.947 48.55 121.757 47.59 121.757 46.59C121.757 45.63 121.947 44.7 122.327 43.8C122.707 42.9 123.227 42.1 123.887 41.4C124.547 40.68 125.287 40.11 126.107 39.69C126.947 39.27 127.807 39.06 128.687 39.06C129.647 39.06 130.477 39.27 131.177 39.69C131.877 40.09 132.457 40.64 132.917 41.34C133.377 42.04 133.717 42.84 133.937 43.74C134.177 44.64 134.307 45.57 134.327 46.53C134.347 47.51 134.247 48.46 134.027 49.38C133.807 50.28 133.467 51.1 133.007 51.84C132.547 52.56 131.957 53.14 131.237 53.58C130.537 54 129.687 54.21 128.687 54.21ZM129.407 48.81C129.787 48.81 130.137 48.71 130.457 48.51C130.777 48.31 131.037 48.05 131.237 47.73C131.437 47.39 131.537 47.03 131.537 46.65C131.537 46.25 131.437 45.89 131.237 45.57C131.057 45.25 130.807 44.99 130.487 44.79C130.167 44.59 129.797 44.49 129.377 44.49C128.977 44.49 128.607 44.59 128.267 44.79C127.947 44.97 127.687 45.23 127.487 45.57C127.307 45.89 127.217 46.25 127.217 46.65C127.217 47.03 127.317 47.39 127.517 47.73C127.717 48.05 127.987 48.31 128.327 48.51C128.667 48.71 129.027 48.81 129.407 48.81ZM134.327 54.24C133.527 54.24 132.927 54.12 132.527 53.88C132.127 53.64 131.857 53.26 131.717 52.74V34.89C131.717 34.45 131.737 34.02 131.777 33.6C131.837 33.18 132.047 32.84 132.407 32.58C132.767 32.3 133.397 32.16 134.297 32.16C135.217 32.16 135.857 32.29 136.217 32.55C136.597 32.81 136.827 33.15 136.907 33.57C136.987 33.97 137.027 34.4 137.027 34.86V51.51C137.027 51.95 136.987 52.38 136.907 52.8C136.827 53.22 136.597 53.57 136.217 53.85C135.857 54.11 135.227 54.24 134.327 54.24ZM148.729 54.27C147.829 54.27 147.189 54.14 146.809 53.88C146.429 53.6 146.199 53.25 146.119 52.83C146.059 52.41 146.029 51.98 146.029 51.54V41.76C146.029 41.32 146.069 40.9 146.149 40.5C146.229 40.08 146.459 39.74 146.839 39.48C147.219 39.2 147.859 39.06 148.759 39.06C149.659 39.06 150.289 39.2 150.649 39.48C151.029 39.74 151.259 40.08 151.339 40.5C151.419 40.92 151.459 41.36 151.459 41.82V51.57C151.459 52.01 151.419 52.44 151.339 52.86C151.259 53.28 151.029 53.62 150.649 53.88C150.289 54.14 149.649 54.27 148.729 54.27ZM148.729 37.59C147.829 37.59 147.189 37.46 146.809 37.2C146.429 36.92 146.199 36.57 146.119 36.15C146.059 35.73 146.029 35.3 146.029 34.86C146.029 34.4 146.069 33.97 146.149 33.57C146.229 33.15 146.459 32.81 146.839 32.55C147.219 32.29 147.859 32.16 148.759 32.16C149.659 32.16 150.289 32.3 150.649 32.58C151.029 32.84 151.259 33.18 151.339 33.6C151.419 34.02 151.459 34.45 151.459 34.89C151.459 35.33 151.419 35.76 151.339 36.18C151.259 36.6 151.029 36.94 150.649 37.2C150.289 37.46 149.649 37.59 148.729 37.59ZM156.108 54.24C155.208 54.24 154.568 54.11 154.188 53.85C153.808 53.57 153.578 53.22 153.498 52.8C153.438 52.38 153.408 51.95 153.408 51.51V41.64C153.408 41.2 153.448 40.78 153.528 40.38C153.608 39.98 153.838 39.66 154.218 39.42C154.598 39.16 155.238 39.03 156.138 39.03C156.958 39.03 157.548 39.14 157.908 39.36C158.288 39.56 158.528 39.81 158.628 40.11C158.728 40.41 158.768 40.69 158.748 40.95C158.748 41.19 158.768 41.34 158.808 41.4L158.568 41.58C158.548 41.28 158.658 40.98 158.898 40.68C159.158 40.38 159.488 40.11 159.888 39.87C160.308 39.61 160.748 39.41 161.208 39.27C161.688 39.11 162.138 39.03 162.558 39.03C163.558 39.03 164.438 39.22 165.198 39.6C165.958 39.98 166.588 40.52 167.088 41.22C167.608 41.9 167.998 42.7 168.258 43.62C168.518 44.54 168.648 45.54 168.648 46.62V51.54C168.648 51.98 168.608 52.41 168.528 52.83C168.448 53.25 168.218 53.59 167.838 53.85C167.478 54.11 166.838 54.24 165.918 54.24C164.998 54.24 164.348 54.11 163.968 53.85C163.588 53.57 163.358 53.22 163.278 52.8C163.198 52.38 163.158 51.95 163.158 51.51V46.62C163.158 46.16 163.068 45.77 162.888 45.45C162.728 45.13 162.488 44.89 162.168 44.73C161.868 44.55 161.488 44.46 161.028 44.46C160.588 44.46 160.198 44.55 159.858 44.73C159.538 44.91 159.288 45.16 159.108 45.48C158.928 45.8 158.838 46.18 158.838 46.62V51.54C158.838 51.98 158.798 52.41 158.718 52.83C158.638 53.25 158.408 53.59 158.028 53.85C157.668 54.11 157.028 54.24 156.108 54.24ZM176.07 54.54C175.51 54.54 174.88 54.47 174.18 54.33C173.5 54.21 172.83 54.03 172.17 53.79C171.53 53.53 171 53.23 170.58 52.89C170.16 52.55 169.95 52.16 169.95 51.72C169.95 51.52 169.99 51.3 170.07 51.06C170.17 50.8 170.3 50.52 170.46 50.22C170.62 49.92 170.82 49.6 171.06 49.26C171.2 49.06 171.36 48.91 171.54 48.81C171.74 48.71 171.97 48.66 172.23 48.66C172.59 48.66 172.94 48.74 173.28 48.9C173.62 49.04 173.96 49.21 174.3 49.41C174.64 49.59 174.99 49.76 175.35 49.92C175.73 50.06 176.13 50.13 176.55 50.13C176.93 50.13 177.21 50.09 177.39 50.01C177.59 49.93 177.69 49.81 177.69 49.65C177.69 49.49 177.62 49.36 177.48 49.26C177.36 49.16 177.18 49.08 176.94 49.02C176.72 48.94 176.46 48.87 176.16 48.81C175.86 48.75 175.54 48.68 175.2 48.6C174.86 48.52 174.51 48.42 174.15 48.3C173.69 48.16 173.24 47.98 172.8 47.76C172.36 47.52 171.96 47.21 171.6 46.83C171.26 46.45 170.98 45.99 170.76 45.45C170.56 44.91 170.46 44.25 170.46 43.47C170.46 42.43 170.7 41.56 171.18 40.86C171.66 40.16 172.37 39.63 173.31 39.27C174.25 38.91 175.41 38.73 176.79 38.73C177.13 38.73 177.47 38.75 177.81 38.79C178.15 38.83 178.49 38.89 178.83 38.97C179.19 39.05 179.54 39.16 179.88 39.3C180.24 39.42 180.6 39.56 180.96 39.72C181.7 40.04 182.08 40.49 182.1 41.07C182.12 41.63 181.91 42.22 181.47 42.84C181.23 43.22 180.98 43.51 180.72 43.71C180.48 43.89 180.23 43.98 179.97 43.98C179.65 43.98 179.3 43.89 178.92 43.71C178.54 43.53 178.14 43.35 177.72 43.17C177.3 42.99 176.88 42.9 176.46 42.9C176.22 42.9 176.01 42.93 175.83 42.99C175.67 43.03 175.55 43.1 175.47 43.2C175.39 43.28 175.35 43.38 175.35 43.5C175.35 43.72 175.42 43.9 175.56 44.04C175.72 44.16 175.92 44.26 176.16 44.34C176.42 44.42 176.71 44.49 177.03 44.55C177.37 44.61 177.73 44.67 178.11 44.73C178.63 44.81 179.16 44.94 179.7 45.12C180.26 45.28 180.77 45.52 181.23 45.84C181.69 46.16 182.06 46.6 182.34 47.16C182.62 47.72 182.76 48.45 182.76 49.35C182.76 51.05 182.19 52.34 181.05 53.22C179.93 54.1 178.27 54.54 176.07 54.54ZM191.802 54.27C190.742 54.27 189.822 54.15 189.042 53.91C188.262 53.67 187.612 53.3 187.092 52.8C186.592 52.3 186.212 51.67 185.952 50.91C185.712 50.15 185.592 49.26 185.592 48.24V36.6C185.592 36.14 185.632 35.72 185.712 35.34C185.792 34.94 186.022 34.62 186.402 34.38C186.782 34.12 187.422 33.99 188.322 33.99C189.202 33.99 189.832 34.13 190.212 34.41C190.592 34.67 190.822 35.01 190.902 35.43C190.982 35.85 191.022 36.28 191.022 36.72V47.97C191.022 48.19 191.032 48.38 191.052 48.54C191.092 48.68 191.142 48.79 191.202 48.87C191.262 48.95 191.342 49.01 191.442 49.05C191.542 49.09 191.672 49.11 191.832 49.11C192.352 49.11 192.812 49.15 193.212 49.23C193.632 49.31 193.952 49.52 194.172 49.86C194.412 50.2 194.532 50.77 194.532 51.57C194.532 52.47 194.392 53.11 194.112 53.49C193.832 53.87 193.482 54.09 193.062 54.15C192.642 54.23 192.222 54.27 191.802 54.27ZM184.962 39.21H188.472L192.612 39.06C193.052 39.06 193.472 39.1 193.872 39.18C194.292 39.26 194.632 39.49 194.892 39.87C195.172 40.25 195.312 40.9 195.312 41.82C195.312 42.66 195.172 43.27 194.892 43.65C194.632 44.03 194.292 44.27 193.872 44.37C193.472 44.47 193.042 44.52 192.582 44.52L188.772 44.43H184.842C184.162 44.39 183.692 44.17 183.432 43.77C183.172 43.37 183.042 42.71 183.042 41.79C183.042 40.93 183.202 40.29 183.522 39.87C183.842 39.43 184.322 39.21 184.962 39.21ZM199.204 54.27C198.304 54.27 197.664 54.14 197.284 53.88C196.904 53.6 196.674 53.25 196.594 52.83C196.534 52.39 196.504 51.95 196.504 51.51V41.73C196.504 41.27 196.544 40.84 196.624 40.44C196.704 40.02 196.934 39.68 197.314 39.42C197.694 39.16 198.334 39.03 199.234 39.03C200.114 39.03 200.734 39.15 201.094 39.39C201.474 39.63 201.704 39.9 201.784 40.2C201.864 40.48 201.904 40.7 201.904 40.86L201.424 40.68C201.424 40.68 201.504 40.59 201.664 40.41C201.824 40.23 202.054 40.02 202.354 39.78C202.674 39.54 203.044 39.33 203.464 39.15C203.904 38.97 204.394 38.88 204.934 38.88C205.114 38.88 205.334 38.9 205.594 38.94C205.874 38.96 206.164 39.01 206.464 39.09C206.784 39.17 207.074 39.29 207.334 39.45C207.614 39.61 207.834 39.82 207.994 40.08C208.174 40.34 208.264 40.66 208.264 41.04C208.264 42.04 208.044 42.89 207.604 43.59C207.184 44.29 206.624 44.64 205.924 44.64C205.544 44.64 205.274 44.62 205.114 44.58C204.954 44.52 204.834 44.47 204.754 44.43C204.694 44.37 204.614 44.32 204.514 44.28C204.434 44.22 204.274 44.19 204.034 44.19C203.734 44.19 203.454 44.23 203.194 44.31C202.954 44.37 202.734 44.47 202.534 44.61C202.354 44.75 202.214 44.92 202.114 45.12C202.014 45.3 201.964 45.5 201.964 45.72V51.57C201.964 52.01 201.924 52.44 201.844 52.86C201.764 53.28 201.534 53.62 201.154 53.88C200.774 54.14 200.124 54.27 199.204 54.27ZM216.263 54.21C215.303 54.21 214.403 54.02 213.563 53.64C212.743 53.26 212.023 52.73 211.403 52.05C210.783 51.35 210.303 50.54 209.963 49.62C209.623 48.7 209.453 47.7 209.453 46.62V41.73C209.453 41.27 209.493 40.84 209.573 40.44C209.653 40.02 209.883 39.68 210.263 39.42C210.643 39.14 211.283 39 212.183 39C213.103 39 213.743 39.14 214.103 39.42C214.483 39.68 214.713 40.02 214.793 40.44C214.873 40.86 214.913 41.3 214.913 41.76V46.62C214.913 47.08 214.993 47.47 215.153 47.79C215.333 48.11 215.583 48.36 215.903 48.54C216.243 48.7 216.633 48.78 217.073 48.78C217.513 48.78 217.893 48.69 218.213 48.51C218.533 48.33 218.783 48.08 218.963 47.76C219.143 47.44 219.233 47.06 219.233 46.62V41.7C219.233 41.24 219.273 40.81 219.353 40.41C219.433 39.99 219.663 39.65 220.043 39.39C220.423 39.13 221.063 39 221.963 39C222.883 39 223.523 39.14 223.883 39.42C224.263 39.68 224.493 40.02 224.573 40.44C224.653 40.86 224.693 41.29 224.693 41.73V51.6C224.693 52.04 224.653 52.46 224.573 52.86C224.493 53.26 224.263 53.59 223.883 53.85C223.503 54.11 222.863 54.24 221.963 54.24C221.303 54.24 220.783 54.16 220.403 54C220.043 53.86 219.783 53.68 219.623 53.46C219.463 53.22 219.363 52.99 219.323 52.77C219.303 52.53 219.293 52.33 219.293 52.17L219.803 52.32C219.803 52.32 219.723 52.42 219.563 52.62C219.403 52.8 219.163 53.02 218.843 53.28C218.543 53.52 218.173 53.74 217.733 53.94C217.313 54.12 216.823 54.21 216.263 54.21ZM234.214 54.42C233.394 54.42 232.524 54.26 231.604 53.94C230.704 53.6 229.854 53.11 229.054 52.47C228.254 51.81 227.604 50.99 227.104 50.01C226.604 49.03 226.354 47.89 226.354 46.59C226.354 45.31 226.604 44.19 227.104 43.23C227.604 42.25 228.244 41.44 229.024 40.8C229.824 40.16 230.674 39.68 231.574 39.36C232.494 39.02 233.354 38.85 234.154 38.85C234.914 38.85 235.574 38.93 236.134 39.09C236.694 39.25 237.154 39.43 237.514 39.63C237.874 39.81 238.134 39.95 238.294 40.05C238.694 40.29 239.064 40.57 239.404 40.89C239.764 41.19 239.944 41.6 239.944 42.12C239.944 42.38 239.894 42.65 239.794 42.93C239.694 43.19 239.534 43.49 239.314 43.83C238.594 44.93 237.874 45.48 237.154 45.48C236.834 45.48 236.554 45.43 236.314 45.33C236.074 45.21 235.854 45.08 235.654 44.94C235.454 44.8 235.234 44.68 234.994 44.58C234.774 44.46 234.494 44.4 234.154 44.4C233.754 44.4 233.384 44.5 233.044 44.7C232.704 44.9 232.434 45.17 232.234 45.51C232.034 45.83 231.934 46.2 231.934 46.62C231.934 47.04 232.034 47.42 232.234 47.76C232.434 48.1 232.694 48.37 233.014 48.57C233.354 48.77 233.714 48.87 234.094 48.87C234.374 48.87 234.604 48.84 234.784 48.78C234.984 48.72 235.134 48.66 235.234 48.6C235.334 48.52 235.394 48.48 235.414 48.48C235.694 48.32 235.954 48.17 236.194 48.03C236.454 47.89 236.714 47.82 236.974 47.82C237.314 47.82 237.664 47.95 238.024 48.21C238.384 48.45 238.784 48.85 239.224 49.41C239.644 49.93 239.874 50.42 239.914 50.88C239.974 51.32 239.864 51.74 239.584 52.14C239.304 52.52 238.874 52.89 238.294 53.25C238.234 53.29 238.024 53.41 237.664 53.61C237.324 53.79 236.864 53.97 236.284 54.15C235.704 54.33 235.014 54.42 234.214 54.42ZM249.458 54.27C248.398 54.27 247.478 54.15 246.698 53.91C245.918 53.67 245.268 53.3 244.748 52.8C244.248 52.3 243.868 51.67 243.608 50.91C243.368 50.15 243.248 49.26 243.248 48.24V36.6C243.248 36.14 243.288 35.72 243.368 35.34C243.448 34.94 243.678 34.62 244.058 34.38C244.438 34.12 245.078 33.99 245.978 33.99C246.858 33.99 247.488 34.13 247.868 34.41C248.248 34.67 248.478 35.01 248.558 35.43C248.638 35.85 248.678 36.28 248.678 36.72V47.97C248.678 48.19 248.688 48.38 248.708 48.54C248.748 48.68 248.798 48.79 248.858 48.87C248.918 48.95 248.998 49.01 249.098 49.05C249.198 49.09 249.328 49.11 249.488 49.11C250.008 49.11 250.468 49.15 250.868 49.23C251.288 49.31 251.608 49.52 251.828 49.86C252.068 50.2 252.188 50.77 252.188 51.57C252.188 52.47 252.048 53.11 251.768 53.49C251.488 53.87 251.138 54.09 250.718 54.15C250.298 54.23 249.878 54.27 249.458 54.27ZM242.618 39.21H246.128L250.268 39.06C250.708 39.06 251.128 39.1 251.528 39.18C251.948 39.26 252.288 39.49 252.548 39.87C252.828 40.25 252.968 40.9 252.968 41.82C252.968 42.66 252.828 43.27 252.548 43.65C252.288 44.03 251.948 44.27 251.528 44.37C251.128 44.47 250.698 44.52 250.238 44.52L246.428 44.43H242.498C241.818 44.39 241.348 44.17 241.088 43.77C240.828 43.37 240.698 42.71 240.698 41.79C240.698 40.93 240.858 40.29 241.178 39.87C241.498 39.43 241.978 39.21 242.618 39.21ZM257.01 54.27C256.11 54.27 255.47 54.14 255.09 53.88C254.71 53.6 254.48 53.25 254.4 52.83C254.34 52.41 254.31 51.98 254.31 51.54V41.76C254.31 41.32 254.35 40.9 254.43 40.5C254.51 40.08 254.74 39.74 255.12 39.48C255.5 39.2 256.14 39.06 257.04 39.06C257.94 39.06 258.57 39.2 258.93 39.48C259.31 39.74 259.54 40.08 259.62 40.5C259.7 40.92 259.74 41.36 259.74 41.82V51.57C259.74 52.01 259.7 52.44 259.62 52.86C259.54 53.28 259.31 53.62 258.93 53.88C258.57 54.14 257.93 54.27 257.01 54.27ZM257.01 37.59C256.11 37.59 255.47 37.46 255.09 37.2C254.71 36.92 254.48 36.57 254.4 36.15C254.34 35.73 254.31 35.3 254.31 34.86C254.31 34.4 254.35 33.97 254.43 33.57C254.51 33.15 254.74 32.81 255.12 32.55C255.5 32.29 256.14 32.16 257.04 32.16C257.94 32.16 258.57 32.3 258.93 32.58C259.31 32.84 259.54 33.18 259.62 33.6C259.7 34.02 259.74 34.45 259.74 34.89C259.74 35.33 259.7 35.76 259.62 36.18C259.54 36.6 259.31 36.94 258.93 37.2C258.57 37.46 257.93 37.59 257.01 37.59ZM269.189 54.54C268.269 54.54 267.339 54.36 266.399 54C265.459 53.62 264.589 53.09 263.789 52.41C263.009 51.71 262.379 50.88 261.899 49.92C261.439 48.94 261.209 47.85 261.209 46.65C261.209 45.55 261.419 44.52 261.839 43.56C262.259 42.6 262.829 41.76 263.549 41.04C264.289 40.3 265.129 39.72 266.069 39.3C267.029 38.88 268.049 38.67 269.129 38.67C270.609 38.67 271.949 39.03 273.149 39.75C274.349 40.45 275.309 41.4 276.029 42.6C276.749 43.8 277.109 45.14 277.109 46.62C277.109 47.88 276.869 49 276.389 49.98C275.909 50.96 275.279 51.79 274.499 52.47C273.719 53.15 272.859 53.66 271.919 54C270.999 54.36 270.089 54.54 269.189 54.54ZM269.129 49.05C269.429 49.05 269.769 48.98 270.149 48.84C270.549 48.68 270.889 48.42 271.169 48.06C271.469 47.7 271.619 47.21 271.619 46.59C271.619 46.09 271.509 45.66 271.289 45.3C271.089 44.94 270.799 44.66 270.419 44.46C270.039 44.26 269.599 44.16 269.099 44.16C268.659 44.16 268.259 44.27 267.899 44.49C267.539 44.69 267.249 44.98 267.029 45.36C266.809 45.72 266.699 46.14 266.699 46.62C266.699 47.22 266.839 47.7 267.119 48.06C267.399 48.42 267.729 48.68 268.109 48.84C268.489 48.98 268.829 49.05 269.129 49.05ZM281.118 54.24C280.218 54.24 279.578 54.11 279.198 53.85C278.818 53.57 278.588 53.22 278.508 52.8C278.448 52.38 278.418 51.95 278.418 51.51V41.64C278.418 41.2 278.458 40.78 278.538 40.38C278.618 39.98 278.848 39.66 279.228 39.42C279.608 39.16 280.248 39.03 281.148 39.03C281.968 39.03 282.558 39.14 282.918 39.36C283.298 39.56 283.538 39.81 283.638 40.11C283.738 40.41 283.778 40.69 283.758 40.95C283.758 41.19 283.778 41.34 283.818 41.4L283.578 41.58C283.558 41.28 283.668 40.98 283.908 40.68C284.168 40.38 284.498 40.11 284.898 39.87C285.318 39.61 285.758 39.41 286.218 39.27C286.698 39.11 287.148 39.03 287.568 39.03C288.568 39.03 289.448 39.22 290.208 39.6C290.968 39.98 291.598 40.52 292.098 41.22C292.618 41.9 293.008 42.7 293.268 43.62C293.528 44.54 293.658 45.54 293.658 46.62V51.54C293.658 51.98 293.618 52.41 293.538 52.83C293.458 53.25 293.228 53.59 292.848 53.85C292.488 54.11 291.848 54.24 290.928 54.24C290.008 54.24 289.358 54.11 288.978 53.85C288.598 53.57 288.368 53.22 288.288 52.8C288.208 52.38 288.168 51.95 288.168 51.51V46.62C288.168 46.16 288.078 45.77 287.898 45.45C287.738 45.13 287.498 44.89 287.178 44.73C286.878 44.55 286.498 44.46 286.038 44.46C285.598 44.46 285.208 44.55 284.868 44.73C284.548 44.91 284.298 45.16 284.118 45.48C283.938 45.8 283.848 46.18 283.848 46.62V51.54C283.848 51.98 283.808 52.41 283.728 52.83C283.648 53.25 283.418 53.59 283.038 53.85C282.678 54.11 282.038 54.24 281.118 54.24ZM301.08 54.54C300.52 54.54 299.89 54.47 299.19 54.33C298.51 54.21 297.84 54.03 297.18 53.79C296.54 53.53 296.01 53.23 295.59 52.89C295.17 52.55 294.96 52.16 294.96 51.72C294.96 51.52 295 51.3 295.08 51.06C295.18 50.8 295.31 50.52 295.47 50.22C295.63 49.92 295.83 49.6 296.07 49.26C296.21 49.06 296.37 48.91 296.55 48.81C296.75 48.71 296.98 48.66 297.24 48.66C297.6 48.66 297.95 48.74 298.29 48.9C298.63 49.04 298.97 49.21 299.31 49.41C299.65 49.59 300 49.76 300.36 49.92C300.74 50.06 301.14 50.13 301.56 50.13C301.94 50.13 302.22 50.09 302.4 50.01C302.6 49.93 302.7 49.81 302.7 49.65C302.7 49.49 302.63 49.36 302.49 49.26C302.37 49.16 302.19 49.08 301.95 49.02C301.73 48.94 301.47 48.87 301.17 48.81C300.87 48.75 300.55 48.68 300.21 48.6C299.87 48.52 299.52 48.42 299.16 48.3C298.7 48.16 298.25 47.98 297.81 47.76C297.37 47.52 296.97 47.21 296.61 46.83C296.27 46.45 295.99 45.99 295.77 45.45C295.57 44.91 295.47 44.25 295.47 43.47C295.47 42.43 295.71 41.56 296.19 40.86C296.67 40.16 297.38 39.63 298.32 39.27C299.26 38.91 300.42 38.73 301.8 38.73C302.14 38.73 302.48 38.75 302.82 38.79C303.16 38.83 303.5 38.89 303.84 38.97C304.2 39.05 304.55 39.16 304.89 39.3C305.25 39.42 305.61 39.56 305.97 39.72C306.71 40.04 307.09 40.49 307.11 41.07C307.13 41.63 306.92 42.22 306.48 42.84C306.24 43.22 305.99 43.51 305.73 43.71C305.49 43.89 305.24 43.98 304.98 43.98C304.66 43.98 304.31 43.89 303.93 43.71C303.55 43.53 303.15 43.35 302.73 43.17C302.31 42.99 301.89 42.9 301.47 42.9C301.23 42.9 301.02 42.93 300.84 42.99C300.68 43.03 300.56 43.1 300.48 43.2C300.4 43.28 300.36 43.38 300.36 43.5C300.36 43.72 300.43 43.9 300.57 44.04C300.73 44.16 300.93 44.26 301.17 44.34C301.43 44.42 301.72 44.49 302.04 44.55C302.38 44.61 302.74 44.67 303.12 44.73C303.64 44.81 304.17 44.94 304.71 45.12C305.27 45.28 305.78 45.52 306.24 45.84C306.7 46.16 307.07 46.6 307.35 47.16C307.63 47.72 307.77 48.45 307.77 49.35C307.77 51.05 307.2 52.34 306.06 53.22C304.94 54.1 303.28 54.54 301.08 54.54Z" fill="white"/>
</svg>
