<svg width="381" height="92" viewBox="0 0 381 92" fill="none" xmlns="http://www.w3.org/2000/svg">
<rect y="6" width="381" height="86" rx="25" fill="#4D4ABC"/>
<rect width="381" height="86" rx="25" fill="#6864FA"/>
<path d="M160.13 54.57C158.91 54.57 157.87 54.42 157.01 54.12C156.17 53.82 155.48 53.47 154.94 53.07C154.4 52.65 153.99 52.27 153.71 51.93C153.43 51.59 153.26 51.38 153.2 51.3C152.8 50.8 152.55 50.35 152.45 49.95C152.37 49.55 152.43 49.15 152.63 48.75C152.85 48.35 153.21 47.91 153.71 47.43C154.17 46.99 154.62 46.75 155.06 46.71C155.5 46.65 155.93 46.74 156.35 46.98C156.79 47.22 157.21 47.57 157.61 48.03C158.09 48.57 158.5 48.94 158.84 49.14C159.18 49.32 159.57 49.41 160.01 49.41C160.55 49.41 160.99 49.35 161.33 49.23C161.67 49.09 161.92 48.89 162.08 48.63C162.24 48.35 162.32 48 162.32 47.58C162.32 47.24 162.15 46.98 161.81 46.8C161.47 46.6 161.02 46.43 160.46 46.29C159.92 46.15 159.31 46 158.63 45.84C157.95 45.66 157.28 45.43 156.62 45.15C156.22 44.99 155.83 44.79 155.45 44.55C155.07 44.31 154.71 44.04 154.37 43.74C154.05 43.42 153.77 43.05 153.53 42.63C153.29 42.19 153.1 41.7 152.96 41.16C152.84 40.62 152.78 40.01 152.78 39.33C152.78 38.11 153.08 37.02 153.68 36.06C154.3 35.1 155.14 34.34 156.2 33.78C157.28 33.22 158.5 32.94 159.86 32.94C160.84 32.94 161.68 33.02 162.38 33.18C163.08 33.34 163.65 33.53 164.09 33.75C164.55 33.97 164.9 34.18 165.14 34.38C165.38 34.56 165.53 34.68 165.59 34.74C166.25 35.34 166.61 35.86 166.67 36.3C166.73 36.72 166.49 37.33 165.95 38.13C165.35 38.99 164.76 39.48 164.18 39.6C163.6 39.7 162.93 39.51 162.17 39.03C162.01 38.91 161.85 38.78 161.69 38.64C161.53 38.48 161.31 38.35 161.03 38.25C160.77 38.13 160.37 38.07 159.83 38.07C159.63 38.07 159.43 38.11 159.23 38.19C159.03 38.25 158.86 38.34 158.72 38.46C158.58 38.56 158.46 38.69 158.36 38.85C158.28 39.01 158.24 39.18 158.24 39.36C158.24 39.78 158.4 40.11 158.72 40.35C159.04 40.57 159.46 40.74 159.98 40.86C160.52 40.98 161.11 41.1 161.75 41.22C162.39 41.34 163.04 41.5 163.7 41.7C164.24 41.88 164.76 42.11 165.26 42.39C165.76 42.67 166.2 43.03 166.58 43.47C166.96 43.91 167.26 44.46 167.48 45.12C167.72 45.76 167.84 46.55 167.84 47.49C167.84 48.79 167.59 49.9 167.09 50.82C166.59 51.72 165.94 52.45 165.14 53.01C164.36 53.55 163.52 53.94 162.62 54.18C161.74 54.44 160.91 54.57 160.13 54.57ZM172.01 54.27C171.11 54.27 170.47 54.14 170.09 53.88C169.71 53.6 169.48 53.25 169.4 52.83C169.34 52.41 169.31 51.98 169.31 51.54V41.76C169.31 41.32 169.35 40.9 169.43 40.5C169.51 40.08 169.74 39.74 170.12 39.48C170.5 39.2 171.14 39.06 172.04 39.06C172.94 39.06 173.57 39.2 173.93 39.48C174.31 39.74 174.54 40.08 174.62 40.5C174.7 40.92 174.74 41.36 174.74 41.82V51.57C174.74 52.01 174.7 52.44 174.62 52.86C174.54 53.28 174.31 53.62 173.93 53.88C173.57 54.14 172.93 54.27 172.01 54.27ZM172.01 37.59C171.11 37.59 170.47 37.46 170.09 37.2C169.71 36.92 169.48 36.57 169.4 36.15C169.34 35.73 169.31 35.3 169.31 34.86C169.31 34.4 169.35 33.97 169.43 33.57C169.51 33.15 169.74 32.81 170.12 32.55C170.5 32.29 171.14 32.16 172.04 32.16C172.94 32.16 173.57 32.3 173.93 32.58C174.31 32.84 174.54 33.18 174.62 33.6C174.7 34.02 174.74 34.45 174.74 34.89C174.74 35.33 174.7 35.76 174.62 36.18C174.54 36.6 174.31 36.94 173.93 37.2C173.57 37.46 172.93 37.59 172.01 37.59ZM183.739 60.6C183.039 60.6 182.319 60.5 181.579 60.3C180.859 60.12 180.189 59.87 179.569 59.55C178.949 59.23 178.449 58.88 178.069 58.5C177.689 58.14 177.499 57.78 177.499 57.42C177.499 57.02 177.569 56.65 177.709 56.31C177.869 55.97 178.099 55.64 178.399 55.32C178.719 54.98 178.999 54.71 179.239 54.51C179.479 54.31 179.769 54.21 180.109 54.21C180.409 54.21 180.669 54.28 180.889 54.42C181.129 54.56 181.369 54.71 181.609 54.87C181.849 55.05 182.139 55.21 182.479 55.35C182.839 55.49 183.289 55.56 183.829 55.56C184.129 55.56 184.409 55.49 184.669 55.35C184.929 55.23 185.149 55.05 185.329 54.81C185.529 54.59 185.689 54.32 185.809 54C185.929 53.7 185.989 53.37 185.989 53.01V40.65C186.069 40.05 186.319 39.62 186.739 39.36C187.159 39.1 187.799 38.97 188.659 38.97C189.539 38.97 190.159 39.1 190.519 39.36C190.879 39.62 191.089 39.96 191.149 40.38C191.229 40.78 191.269 41.2 191.269 41.64V53.19C191.269 54.37 191.039 55.42 190.579 56.34C190.139 57.26 189.549 58.03 188.809 58.65C188.069 59.29 187.259 59.77 186.379 60.09C185.499 60.43 184.619 60.6 183.739 60.6ZM182.989 53.82C182.109 53.82 181.259 53.62 180.439 53.22C179.639 52.82 178.919 52.27 178.279 51.57C177.639 50.87 177.129 50.08 176.749 49.2C176.389 48.3 176.209 47.36 176.209 46.38C176.209 45.44 176.389 44.53 176.749 43.65C177.129 42.77 177.639 41.99 178.279 41.31C178.939 40.61 179.669 40.06 180.469 39.66C181.289 39.24 182.129 39.03 182.989 39.03C183.869 39.03 184.589 39.21 185.149 39.57C185.729 39.93 186.179 40.44 186.499 41.1C186.839 41.76 187.079 42.55 187.219 43.47C187.359 44.37 187.429 45.37 187.429 46.47C187.429 47.99 187.299 49.3 187.039 50.4C186.799 51.5 186.359 52.35 185.719 52.95C185.079 53.53 184.169 53.82 182.989 53.82ZM183.709 48.54C184.089 48.54 184.429 48.44 184.729 48.24C185.049 48.04 185.299 47.78 185.479 47.46C185.679 47.14 185.779 46.8 185.779 46.44C185.779 46.04 185.679 45.68 185.479 45.36C185.299 45.04 185.049 44.79 184.729 44.61C184.409 44.41 184.049 44.31 183.649 44.31C183.269 44.31 182.919 44.41 182.599 44.61C182.279 44.81 182.019 45.07 181.819 45.39C181.639 45.71 181.549 46.06 181.549 46.44C181.549 46.8 181.649 47.14 181.849 47.46C182.049 47.78 182.309 48.04 182.629 48.24C182.969 48.44 183.329 48.54 183.709 48.54ZM195.766 54.24C194.866 54.24 194.226 54.11 193.846 53.85C193.466 53.57 193.236 53.22 193.156 52.8C193.096 52.38 193.066 51.95 193.066 51.51V41.64C193.066 41.2 193.106 40.78 193.186 40.38C193.266 39.98 193.496 39.66 193.876 39.42C194.256 39.16 194.896 39.03 195.796 39.03C196.616 39.03 197.206 39.14 197.566 39.36C197.946 39.56 198.186 39.81 198.286 40.11C198.386 40.41 198.426 40.69 198.406 40.95C198.406 41.19 198.426 41.34 198.466 41.4L198.226 41.58C198.206 41.28 198.316 40.98 198.556 40.68C198.816 40.38 199.146 40.11 199.546 39.87C199.966 39.61 200.406 39.41 200.866 39.27C201.346 39.11 201.796 39.03 202.216 39.03C203.216 39.03 204.096 39.22 204.856 39.6C205.616 39.98 206.246 40.52 206.746 41.22C207.266 41.9 207.656 42.7 207.916 43.62C208.176 44.54 208.306 45.54 208.306 46.62V51.54C208.306 51.98 208.266 52.41 208.186 52.83C208.106 53.25 207.876 53.59 207.496 53.85C207.136 54.11 206.496 54.24 205.576 54.24C204.656 54.24 204.006 54.11 203.626 53.85C203.246 53.57 203.016 53.22 202.936 52.8C202.856 52.38 202.816 51.95 202.816 51.51V46.62C202.816 46.16 202.726 45.77 202.546 45.45C202.386 45.13 202.146 44.89 201.826 44.73C201.526 44.55 201.146 44.46 200.686 44.46C200.246 44.46 199.856 44.55 199.516 44.73C199.196 44.91 198.946 45.16 198.766 45.48C198.586 45.8 198.496 46.18 198.496 46.62V51.54C198.496 51.98 198.456 52.41 198.376 52.83C198.296 53.25 198.066 53.59 197.686 53.85C197.326 54.11 196.686 54.24 195.766 54.24ZM223.929 54.21C222.969 54.21 222.069 54.02 221.229 53.64C220.409 53.26 219.689 52.73 219.069 52.05C218.449 51.35 217.969 50.54 217.629 49.62C217.289 48.7 217.119 47.7 217.119 46.62V41.73C217.119 41.27 217.159 40.84 217.239 40.44C217.319 40.02 217.549 39.68 217.929 39.42C218.309 39.14 218.949 39 219.849 39C220.769 39 221.409 39.14 221.769 39.42C222.149 39.68 222.379 40.02 222.459 40.44C222.539 40.86 222.579 41.3 222.579 41.76V46.62C222.579 47.08 222.659 47.47 222.819 47.79C222.999 48.11 223.249 48.36 223.569 48.54C223.909 48.7 224.299 48.78 224.739 48.78C225.179 48.78 225.559 48.69 225.879 48.51C226.199 48.33 226.449 48.08 226.629 47.76C226.809 47.44 226.899 47.06 226.899 46.62V41.7C226.899 41.24 226.939 40.81 227.019 40.41C227.099 39.99 227.329 39.65 227.709 39.39C228.089 39.13 228.729 39 229.629 39C230.549 39 231.189 39.14 231.549 39.42C231.929 39.68 232.159 40.02 232.239 40.44C232.319 40.86 232.359 41.29 232.359 41.73V51.6C232.359 52.04 232.319 52.46 232.239 52.86C232.159 53.26 231.929 53.59 231.549 53.85C231.169 54.11 230.529 54.24 229.629 54.24C228.969 54.24 228.449 54.16 228.069 54C227.709 53.86 227.449 53.68 227.289 53.46C227.129 53.22 227.029 52.99 226.989 52.77C226.969 52.53 226.959 52.33 226.959 52.17L227.469 52.32C227.469 52.32 227.389 52.42 227.229 52.62C227.069 52.8 226.829 53.02 226.509 53.28C226.209 53.52 225.839 53.74 225.399 53.94C224.979 54.12 224.489 54.21 223.929 54.21ZM242.27 53.91C241.29 53.91 240.44 53.71 239.72 53.31C239 52.91 238.41 52.37 237.95 51.69C237.49 50.99 237.15 50.2 236.93 49.32C236.71 48.44 236.61 47.51 236.63 46.53C236.65 45.57 236.77 44.64 236.99 43.74C237.23 42.84 237.58 42.04 238.04 41.34C238.5 40.64 239.08 40.09 239.78 39.69C240.48 39.27 241.31 39.06 242.27 39.06C243.15 39.06 244 39.27 244.82 39.69C245.66 40.11 246.41 40.68 247.07 41.4C247.73 42.1 248.25 42.9 248.63 43.8C249.01 44.7 249.2 45.63 249.2 46.59C249.2 47.59 249.01 48.54 248.63 49.44C248.25 50.32 247.73 51.1 247.07 51.78C246.43 52.44 245.69 52.96 244.85 53.34C244.03 53.72 243.17 53.91 242.27 53.91ZM236.72 60.63C235.84 60.63 235.21 60.5 234.83 60.24C234.45 59.98 234.22 59.65 234.14 59.25C234.08 58.85 234.05 58.43 234.05 57.99V41.7C234.05 41.26 234.08 40.84 234.14 40.44C234.22 40.04 234.44 39.71 234.8 39.45C235.18 39.17 235.81 39.03 236.69 39.03C237.39 39.03 237.97 39.13 238.43 39.33C238.89 39.51 239.22 39.8 239.42 40.2V57.96C239.46 58.4 239.43 58.82 239.33 59.22C239.25 59.64 239.02 59.98 238.64 60.24C238.26 60.5 237.62 60.63 236.72 60.63ZM241.55 48.81C241.95 48.81 242.31 48.71 242.63 48.51C242.97 48.31 243.24 48.05 243.44 47.73C243.64 47.39 243.74 47.03 243.74 46.65C243.74 46.25 243.64 45.89 243.44 45.57C243.26 45.23 243 44.97 242.66 44.79C242.34 44.59 241.98 44.49 241.58 44.49C241.18 44.49 240.81 44.59 240.47 44.79C240.15 44.99 239.89 45.25 239.69 45.57C239.51 45.89 239.42 46.25 239.42 46.65C239.42 47.03 239.52 47.39 239.72 47.73C239.92 48.05 240.18 48.31 240.5 48.51C240.82 48.71 241.17 48.81 241.55 48.81Z" fill="white"/>
</svg>
